<?xml version="1.0" standalone="no"?>
<!DOCTYPE svg PUBLIC "-//W3C//DTD SVG 20010904//EN"
 "http://www.w3.org/TR/2001/REC-SVG-20010904/DTD/svg10.dtd">
<svg version="1.0" xmlns="http://www.w3.org/2000/svg"
 width="1000.000000pt" height="1000.000000pt" viewBox="0 0 1000.000000 1000.000000"
 preserveAspectRatio="xMidYMid meet">

<g transform="translate(0.000000,1000.000000) scale(0.100000,-0.100000)"
fill="#000000" stroke="none">
<path d="M6757 8237 c-50 -30 -463 -592 -473 -643 -11 -58 2 -113 36 -156 18
-22 30 -42 27 -45 -3 -3 -52 2 -109 11 -138 21 -362 46 -421 46 -60 0 -115
-27 -157 -77 -17 -21 -289 -389 -603 -818 -392 -534 -578 -781 -592 -783 -13
-2 -231 126 -570 334 -303 185 -570 346 -595 356 -39 17 -51 18 -89 8 -54 -14
-86 -46 -101 -99 -20 -74 11 -138 95 -197 l29 -20 -13 -109 c-18 -155 -20
-165 -43 -165 -11 0 -69 28 -131 62 -103 58 -117 63 -182 66 -93 5 -159 -22
-217 -87 -79 -89 -104 -179 -76 -275 23 -78 85 -124 563 -417 248 -152 469
-286 492 -298 89 -44 190 -65 318 -65 185 0 311 43 473 162 144 105 221 115
355 46 55 -29 84 -38 123 -38 47 0 64 7 195 86 154 92 197 107 253 88 19 -6
183 -101 363 -211 233 -142 335 -199 353 -197 20 3 165 194 808 1068 431 586
792 1083 803 1105 27 58 25 117 -6 154 -14 16 -35 33 -46 36 -11 4 -110 19
-219 34 -110 15 -206 34 -215 41 -25 21 -18 43 37 116 29 38 151 201 270 363
229 309 239 327 204 377 -8 11 -32 28 -53 37 -43 19 -724 127 -799 127 -33 0
-61 -8 -87 -23z"/>
<path d="M3097 4948 l-6 -83 109 -182 c61 -100 113 -195 116 -212 4 -21 -16
-123 -67 -325 l-73 -295 24 -26 c88 -94 508 -345 578 -345 17 0 80 50 215 173
290 260 258 237 330 237 34 0 136 -7 226 -15 l163 -14 70 35 c61 31 68 37 62
57 -3 12 -7 23 -8 24 -8 10 -1702 1046 -1717 1050 -13 4 -17 -9 -22 -79z"/>
<path d="M3007 3671 c-133 -58 -241 -166 -286 -285 -36 -96 -442 -1600 -439
-1626 3 -21 9 -25 40 -28 36 -3 45 4 215 161 98 90 363 333 588 540 236 217
432 405 462 444 70 90 104 182 110 300 4 70 2 97 -8 109 -8 9 -23 35 -35 58
-17 34 -35 48 -115 91 -97 52 -204 121 -322 207 -86 64 -119 69 -210 29z"/>
</g>
</svg>
